<svg width="229" height="221" viewBox="0 0 229 221" fill="none" xmlns="http://www.w3.org/2000/svg">
<path d="M216.703 91.3678L216.432 90.5525L187.657 15.4092C187.114 13.9145 186.029 12.6916 184.671 11.8763C183.314 11.061 181.821 10.6533 180.192 10.6533C178.563 10.6533 177.07 11.3327 175.849 12.2839C174.627 13.2351 173.677 14.5939 173.27 16.2245L153.861 75.7412H75.2746L55.8656 16.2245C55.4584 14.7298 54.5083 13.371 53.2867 12.2839C52.0652 11.3327 50.5722 10.6533 48.9434 10.6533C47.3147 10.6533 45.8217 10.9251 44.4644 11.8763C43.1071 12.6916 42.0213 13.9145 41.4784 15.4092L12.7041 90.5525L12.4327 91.3678C3.8818 113.653 11.2111 138.791 30.213 153.195H30.4845C30.4845 153.33 74.3245 186.214 74.3245 186.214L96.041 202.656L109.207 212.575C112.328 215.021 116.807 215.021 119.929 212.575L133.095 202.656L154.811 186.214L198.923 153.195C217.925 138.791 225.118 113.653 216.567 91.3678H216.703Z" fill="#E24329"/>
<path d="M216.703 91.3678L216.432 90.5525C202.18 93.5419 189.015 99.5208 177.749 107.946C177.613 107.946 143.546 133.899 114.5 155.776C135.945 172.082 154.675 186.214 154.675 186.214L198.787 153.195C217.789 138.791 224.982 113.653 216.432 91.3678H216.703Z" fill="#FC6D26"/>
<path d="M74.189 186.214L95.9054 202.656L109.071 212.575C112.193 215.021 116.672 215.021 119.794 212.575L132.959 202.656L154.676 186.214C154.676 186.214 135.945 172.082 114.5 155.776C92.9194 172.082 74.189 186.214 74.189 186.214Z" fill="#FCA326"/>
<path d="M51.2508 107.946C39.9854 99.5208 26.8198 93.406 12.5684 90.5525L12.2969 91.3678C3.74606 113.653 11.0754 138.791 30.0773 153.195H30.3487C30.3487 153.33 74.1888 186.214 74.1888 186.214C74.1888 186.214 92.9192 172.082 114.5 155.776C85.5899 133.899 51.5223 108.081 51.2508 107.946Z" fill="#FC6D26"/>
</svg>
