<svg width="550" height="124" viewBox="0 0 550 124" fill="none" xmlns="http://www.w3.org/2000/svg">
<path d="M152.041 101.056C138.025 101.056 125.833 89.728 125.833 75.616C125.833 61.6 137.353 50.272 151.177 50.272C165.481 50.272 178.441 62.848 175.465 80.512H139.753C141.481 85.696 145.801 89.152 152.041 89.152C157.513 89.152 161.161 87.04 163.465 84.064L174.121 89.152C169.801 96.832 162.121 101.056 152.041 101.056ZM140.041 70.24H162.505C161.065 65.632 157.321 62.176 151.177 62.176C145.705 62.176 141.769 65.728 140.041 70.24ZM183.534 100V51.328H196.398V55.264C199.47 52.096 203.598 50.272 208.59 50.272C216.462 50.272 222.222 53.536 225.678 58.72C229.614 53.44 235.278 50.272 242.382 50.272C256.782 50.272 263.886 61.216 263.886 74.848V100H251.022V74.848C251.022 68.896 247.662 63.04 240.654 63.04C233.262 63.04 230.094 69.568 230.094 76.672V100H217.326V74.848C217.326 68.896 213.87 63.04 206.862 63.04C199.47 63.04 196.398 69.568 196.398 76.672V100H183.534ZM295.809 101.056C280.737 101.056 273.441 90.112 273.441 76.48V51.328H286.305V76.48C286.305 82.432 289.857 88.288 297.537 88.288C305.601 88.288 308.961 81.76 308.961 74.656V51.328H321.729V100H308.961V95.872C305.601 99.136 301.281 101.056 295.809 101.056ZM331.284 100V51.328H344.052V57.664C347.508 52.864 352.404 50.272 358.932 50.272V63.04C349.908 63.04 344.052 66.112 344.052 80.992V100H331.284ZM387.494 101.056C373.766 101.056 363.302 89.728 363.302 75.616C363.302 61.6 373.766 50.272 387.494 50.272C393.446 50.272 398.63 52.288 402.662 55.648V51.328H415.526V100H402.662V95.68C398.63 99.04 393.446 101.056 387.494 101.056ZM376.55 75.616C376.55 82.624 382.214 88.288 389.222 88.288C396.23 88.288 401.894 82.624 401.894 75.616C401.894 68.704 396.23 63.04 389.222 63.04C382.214 63.04 376.55 68.704 376.55 75.616Z" fill="white"/>
<path d="M457.672 101.056C438.376 101.056 422.728 85.6 422.728 66.4C422.728 47.104 438.376 31.648 457.672 31.648C476.872 31.648 492.616 47.104 492.616 66.4C492.616 85.6 476.872 101.056 457.672 101.056ZM436.36 66.4C436.36 78.016 445.96 87.424 457.672 87.424C469.384 87.424 478.984 78.016 478.984 66.4C478.984 54.688 469.384 45.28 457.672 45.28C445.96 45.28 436.36 54.688 436.36 66.4Z" fill="#0A61E3"/>
<path d="M522.214 100C501.06 100 495 86.5436 495 80.4357L511.237 79.195C511.351 81.5809 513.981 86.7344 522.214 86.7344C529.647 86.7344 532.734 83.4896 532.734 79.6722C532.734 75.1867 527.131 73.4689 516.383 70.3195C503.69 66.5021 497.859 60.7759 497.859 50.5643C497.859 39.5892 508.035 31 521.414 31C535.478 31 544.397 39.4938 545.655 48.083L529.761 49.8008C529.418 47.3195 527.36 43.9792 521.642 43.9792C516.497 43.9792 513.981 47.2241 513.981 50.1826C513.981 53.4274 515.582 56.0041 525.073 58.5809C535.135 61.444 550 64.8797 550 79.3859C550 91.3154 538.451 100 522.214 100Z" fill="#0A61E3"/>
<circle cx="53" cy="62" r="53" fill="#0A61E3"/>
<path d="M78.918 78.8675C80.3297 78.8675 81.5155 79.3735 82.4754 80.3855C83.4918 81.3414 84 82.5221 84 83.9277C84 85.2771 83.52 86.4859 82.5601 87.5542C79.9627 90.3092 76.3206 92.5863 71.6339 94.3855C66.9472 96.1285 62.2887 97 57.6585 97C50.939 97 44.8689 95.5381 39.4481 92.6145C34.0273 89.6908 29.7641 85.5863 26.6585 80.3012C23.5528 75.0161 22 68.9438 22 62.0843C22 55.2811 23.5528 49.2088 26.6585 43.8675C29.7641 38.5261 34.0273 34.3936 39.4481 31.4699C44.8689 28.49 50.939 27 57.6585 27C62.2887 27 66.9189 27.9277 71.5492 29.7831C76.1794 31.6386 79.8215 34.0843 82.4754 37.1205C83.4353 38.245 83.9153 39.4538 83.9153 40.747C83.9153 42.1526 83.4071 43.3614 82.3907 44.3735C81.3743 45.3293 80.1603 45.8072 78.7486 45.8072C78.071 45.8072 77.3934 45.6667 76.7158 45.3855C76.0383 45.1044 75.5018 44.7108 75.1066 44.2048C73.469 42.2369 71.041 40.6908 67.8224 39.5663C64.6038 38.4418 61.2158 37.8795 57.6585 37.8795C51.3907 37.8795 46.1111 39.4538 41.8197 42.6024C35.269 47.3857 41.2908 55.6747 49.402 55.6747H60.0301C61.4417 55.6747 62.6275 56.1807 63.5874 57.1928C64.6038 58.1486 65.112 59.3293 65.112 60.7349C65.112 62.1406 64.6038 63.3494 63.5874 64.3614C62.6275 65.3173 61.4417 65.7952 60.0301 65.7952H50.4953C41.2721 65.7952 33.7901 74.9176 40.888 80.8072C45.3488 84.4056 50.939 86.2048 57.6585 86.2048C61.5546 86.2048 65.112 85.6988 68.3306 84.6867C71.5492 83.6747 73.8078 82.3534 75.1066 80.7229C75.5583 80.1606 76.123 79.7108 76.8005 79.3735C77.5346 79.0361 78.2404 78.8675 78.918 78.8675Z" fill="white" fill-opacity="0.2"/>
<path d="M78.1803 81.2771C79.7969 81.2771 81.1548 81.8554 82.2541 83.012C83.418 84.1044 84 85.4538 84 87.0602C84 88.6024 83.4504 89.9839 82.3511 91.2048C79.3766 94.3534 75.2058 96.9558 69.8388 99.012C64.4718 101.004 59.1371 102 53.8347 102C46.1398 102 39.1885 100.329 32.9809 96.9879C26.7732 93.6466 21.8912 88.9558 18.3347 82.9157C14.7782 76.8755 13 69.9357 13 62.0964C13 54.3213 14.7782 47.3815 18.3347 41.2771C21.8912 35.1727 26.7732 30.4498 32.9809 27.1084C39.1885 23.7028 46.1398 22 53.8347 22C59.1371 22 64.4394 23.0602 69.7418 25.1807C75.0442 27.3012 79.2149 30.0964 82.2541 33.5663C83.3534 34.8514 83.903 36.2329 83.903 37.7108C83.903 39.3173 83.321 40.6988 82.1571 41.8554C80.9932 42.9478 79.6029 43.494 77.9863 43.494C77.2104 43.494 76.4344 43.3333 75.6585 43.012C74.8825 42.6908 74.2682 42.241 73.8156 41.6626C71.9403 39.4137 69.1598 37.6466 65.474 36.3614C61.7882 35.0763 57.9085 34.4337 53.8347 34.4337C46.6571 34.4337 40.6111 36.2329 35.6967 39.8313C28.2016 45.2932 35.0802 54.7711 44.3543 54.7711H56.5505C58.1671 54.7711 59.525 55.3494 60.6243 56.506C61.7882 57.5984 62.3702 58.9478 62.3702 60.5542C62.3702 62.1606 61.7882 63.5422 60.6243 64.6988C59.525 65.7912 58.1671 66.3373 56.5505 66.3373H45.6013C35.0563 66.3373 26.508 76.7683 34.6298 83.494C39.7382 87.6064 46.1398 89.6626 53.8347 89.6626C58.2964 89.6626 62.3702 89.0843 66.056 87.9277C69.7418 86.7711 72.3283 85.261 73.8156 83.3976C74.3329 82.755 74.9795 82.241 75.7555 81.8554C76.5961 81.4699 77.4044 81.2771 78.1803 81.2771Z" fill="white"/>
</svg>
